<?xml version="1.0" standalone="no"?>
<!DOCTYPE svg PUBLIC "-//W3C//DTD SVG 20010904//EN"
 "http://www.w3.org/TR/2001/REC-SVG-20010904/DTD/svg10.dtd">
<svg version="1.0" xmlns="http://www.w3.org/2000/svg"
 width="900.000000pt" height="900.000000pt" viewBox="0 0 900.000000 900.000000"
 preserveAspectRatio="xMidYMid meet">
<metadata>
Created by potrace 1.11, written by Peter Selinger 2001-2013
</metadata>
<g transform="translate(0.000000,900.000000) scale(0.100000,-0.100000)"
fill="#000000" stroke="none">
<path d="M4339 8926 c-2 -2 -35 -6 -74 -10 -195 -17 -408 -70 -610 -153 -441
-180 -814 -500 -1072 -921 -1 -2 -30 -6 -65 -7 -175 -10 -272 -23 -418 -56
-714 -163 -1321 -694 -1580 -1383 -96 -255 -141 -505 -142 -781 -1 -166 11
-282 48 -480 23 -128 102 -350 180 -511 l54 -110 -54 -110 c-64 -130 -118
-271 -151 -397 -55 -208 -76 -361 -77 -567 -1 -112 7 -257 16 -307 2 -10 9
-54 16 -97 28 -183 122 -464 217 -644 180 -341 438 -625 763 -837 333 -218
682 -332 1105 -361 76 -5 115 -21 115 -46 0 -8 20 -40 72 -113 112 -156 322
-372 472 -484 328 -245 650 -376 1071 -436 92 -13 479 -13 560 0 256 41 479
108 677 202 236 114 419 243 603 428 152 151 191 199 294 353 58 87 64 92 99
94 41 1 52 2 167 12 324 29 689 157 980 345 144 93 227 162 375 310 315 317
533 733 605 1155 9 50 18 102 20 116 23 129 22 475 -1 593 -2 11 -11 62 -19
112 -31 180 -111 415 -200 590 l-46 89 60 120 c87 177 169 432 195 606 21 139
31 278 30 385 -5 333 -78 649 -218 940 -69 144 -134 253 -222 372 -197 268
-483 509 -779 656 -297 149 -562 219 -904 242 -47 3 -85 6 -86 8 0 1 -23 36
-49 77 -237 366 -597 666 -1002 836 -141 59 -366 126 -469 139 -16 2 -46 7
-65 10 -19 3 -51 8 -70 11 -40 7 -415 15 -421 10z m361 -90 c41 -3 86 -8 100
-11 14 -3 43 -7 65 -10 22 -3 47 -7 55 -10 8 -2 26 -6 40 -9 121 -21 326 -93
485 -171 225 -110 462 -286 621 -460 86 -94 256 -316 248 -324 -2 -3 -19 -6
-37 -7 -91 -7 -174 -14 -193 -18 -12 -2 -38 -7 -58 -10 -368 -59 -747 -230
-1041 -470 -147 -121 -360 -356 -450 -498 -17 -27 -32 -48 -35 -48 -3 0 -14
14 -24 30 -86 146 -324 409 -481 530 -44 34 -87 67 -95 73 -78 62 -293 182
-425 236 -44 19 -89 37 -100 42 -78 32 -248 78 -390 104 -67 13 -216 28 -272
29 -32 0 -29 12 20 82 239 348 594 629 987 782 159 61 261 89 475 127 17 3 66
8 110 11 44 4 81 7 82 8 5 4 242 -2 313 -8z m-2227 -1208 c-80 -178 -146 -390
-169 -546 -3 -20 -7 -43 -9 -50 -19 -55 -27 -435 -12 -569 28 -256 114 -552
219 -752 16 -30 27 -55 25 -57 -1 -2 -34 -6 -72 -9 -128 -10 -159 -15 -351
-51 -47 -9 -202 -57 -293 -90 -412 -154 -811 -470 -1054 -837 -21 -31 -42 -57
-46 -57 -11 0 -95 189 -133 300 -32 94 -75 260 -84 330 -3 25 -8 47 -9 50 -10
16 -19 165 -20 305 0 196 9 295 41 449 168 796 763 1425 1549 1636 135 37 286
61 422 68 l52 3 -56 -123z m469 97 c443 -67 851 -276 1179 -604 128 -129 313
-361 298 -375 -2 -2 -51 -7 -109 -11 -58 -4 -107 -8 -110 -10 -3 -1 -27 -6
-55 -10 -294 -39 -643 -179 -915 -368 -222 -155 -471 -408 -583 -593 -18 -30
-35 -54 -38 -54 -9 0 -75 138 -113 238 -54 141 -88 271 -120 460 -9 55 -20
212 -20 307 0 89 12 267 19 289 3 6 7 29 9 51 20 160 94 397 179 575 69 144
54 134 177 126 58 -3 149 -12 202 -21z m3475 -63 c152 -315 224 -607 226 -926
1 -114 -9 -302 -18 -329 -2 -7 -6 -30 -9 -52 -15 -118 -68 -310 -124 -450 -58
-145 -112 -238 -112 -194 0 16 -159 227 -226 298 -117 127 -193 195 -319 290
-196 147 -414 261 -640 334 -124 40 -226 64 -400 92 -16 3 -70 8 -120 11 -49
4 -92 8 -94 10 -2 2 13 28 33 59 150 226 397 465 639 619 260 165 614 288 897
312 36 4 67 8 69 10 2 2 38 4 80 4 l76 0 42 -88z m248 73 c11 -3 38 -7 60 -10
199 -24 457 -108 665 -218 631 -334 1049 -944 1137 -1662 9 -74 10 -379 1
-460 -25 -232 -84 -446 -183 -668 -26 -59 -51 -107 -56 -107 -4 0 -29 31 -55
70 -101 151 -290 356 -439 475 -358 288 -769 449 -1250 491 -38 3 -71 7 -73 8
-1 2 8 23 21 47 68 129 158 380 183 514 2 11 8 40 14 65 36 163 48 500 24 680
-37 283 -118 549 -236 774 -9 17 -6 18 78 12 49 -4 97 -9 109 -11z m-2250
-1094 c-3 -11 -21 -50 -39 -88 -78 -160 -147 -381 -181 -577 -54 -319 -28
-736 64 -1011 11 -33 19 -61 17 -62 -1 -1 -42 39 -91 89 -349 356 -828 588
-1329 644 -73 8 -124 12 -154 13 -22 1 -21 4 19 64 143 212 342 415 552 561
323 225 700 355 1115 384 29 2 33 0 27 -17z m335 4 c45 -6 139 -20 195 -31 31
-5 146 -36 200 -53 142 -43 330 -129 465 -211 77 -47 251 -173 290 -210 9 -8
40 -37 68 -63 86 -79 223 -237 290 -335 59 -85 62 -92 40 -93 -43 -2 -103 -7
-158 -14 -30 -4 -72 -9 -93 -11 -66 -7 -278 -61 -382 -97 -337 -117 -606 -289
-883 -567 -35 -36 -62 -60 -59 -55 7 14 63 230 70 270 3 17 8 48 11 70 4 22 8
49 11 60 8 40 19 202 19 295 0 261 -39 500 -119 729 -37 107 -111 279 -126
296 -5 5 -9 15 -9 22 0 13 39 13 170 -2z m-203 -125 c71 -157 127 -322 158
-468 15 -75 20 -102 33 -207 12 -98 7 -443 -7 -535 -20 -130 -69 -325 -108
-430 -42 -114 -113 -270 -123 -270 -9 0 -70 132 -114 245 -54 142 -91 292
-125 510 -10 64 -7 447 3 505 4 19 14 75 22 124 27 162 81 334 162 514 52 117
51 117 99 12z m-2020 -959 c1 -1 -20 -47 -47 -103 -82 -175 -145 -374 -176
-557 -3 -18 -8 -43 -10 -55 -19 -96 -26 -450 -11 -576 28 -239 99 -489 196
-694 27 -58 47 -106 43 -107 -15 -2 -125 3 -140 6 -10 1 -42 6 -72 9 -30 4
-62 8 -70 10 -8 1 -33 6 -55 11 -542 104 -1039 437 -1359 909 -76 111 -77 93
12 221 105 152 195 252 367 410 44 41 200 155 277 203 265 165 620 284 918
307 41 4 76 8 77 9 3 2 44 0 50 -3z m273 -5 c47 -4 94 -8 105 -10 11 -2 40 -7
65 -11 69 -11 237 -54 320 -82 458 -156 862 -469 1116 -867 l18 -28 -90 6
c-49 3 -98 8 -109 10 -11 2 -42 7 -70 10 -127 18 -355 84 -490 141 -367 156
-700 427 -929 757 -47 68 -56 91 -33 83 6 -2 50 -6 97 -9z m3510 1 c0 -13 -77
-122 -148 -210 -208 -256 -502 -481 -797 -609 -140 -60 -334 -121 -460 -143
-22 -4 -50 -9 -62 -11 -48 -9 -91 -14 -177 -19 -71 -5 -87 -4 -80 7 55 95 189
261 295 367 122 122 213 194 394 311 49 32 239 130 292 151 218 86 417 135
628 155 39 4 71 7 72 8 7 6 43 0 43 -7z m290 -2 c46 -4 87 -8 90 -10 3 -1 28
-6 55 -9 28 -4 57 -9 65 -11 8 -2 26 -6 40 -9 119 -20 311 -87 466 -160 254
-122 445 -262 657 -484 63 -67 209 -257 245 -321 l22 -40 -66 -97 c-364 -538
-952 -888 -1579 -940 -44 -4 -87 -8 -95 -9 -8 -1 -18 -1 -22 1 -3 3 15 50 42
107 75 160 150 395 174 547 3 19 8 45 10 57 21 99 28 428 13 578 -23 232 -109
531 -213 738 -19 37 -34 70 -34 72 0 2 10 2 23 0 12 -2 60 -6 107 -10z m-3878
-195 c210 -280 471 -497 785 -654 165 -82 391 -162 517 -183 l41 -7 -55 -13
c-30 -8 -62 -15 -71 -17 -62 -15 -179 -54 -264 -88 -400 -159 -750 -436 -1001
-793 l-68 -96 -28 53 c-80 155 -165 418 -193 598 -70 445 -12 867 172 1261 47
100 48 101 63 78 8 -13 54 -76 102 -139z m3768 -48 c127 -320 176 -649 146
-987 -23 -259 -101 -537 -213 -759 l-30 -59 -62 91 c-241 352 -604 640 -1008
801 -82 33 -243 84 -297 95 -6 2 -29 7 -51 11 l-40 8 75 18 c220 50 471 154
673 281 257 160 519 416 675 657 l35 55 28 -55 c16 -30 47 -100 69 -157z
m-2087 -872 c-45 -77 -179 -244 -268 -333 -307 -309 -662 -504 -1086 -597 -75
-16 -131 -24 -332 -44 -41 -4 -41 -7 7 64 259 387 680 701 1131 843 144 46
370 88 511 95 l56 3 -19 -31z m367 15 c3 -1 28 -5 55 -9 266 -33 613 -166 860
-332 242 -161 469 -390 619 -625 l17 -27 -33 4 c-18 1 -62 5 -98 8 -376 30
-777 187 -1094 428 -145 111 -297 259 -381 373 -17 22 -32 42 -35 45 -10 9
-77 106 -90 129 l-12 24 93 -8 c52 -3 96 -8 99 -10z m-3897 -250 c245 -304
588 -550 957 -687 103 -38 296 -91 375 -103 22 -3 47 -7 55 -10 18 -4 101 -13
194 -20 39 -3 71 -7 73 -9 2 -1 -10 -29 -26 -62 -114 -227 -188 -485 -218
-752 -10 -81 -9 -393 0 -482 27 -247 109 -525 224 -754 l25 -49 -93 7 c-52 4
-103 9 -114 11 -11 2 -38 6 -60 9 -22 3 -51 8 -65 11 -14 3 -35 7 -46 9 -122
23 -327 93 -467 160 -362 171 -692 466 -904 807 -124 198 -243 499 -278 698
-3 19 -7 37 -9 40 -2 3 -7 31 -10 61 -4 30 -11 84 -15 120 -17 130 -5 437 24
602 29 162 101 381 176 535 l40 82 49 -72 c27 -39 78 -108 113 -152z m7468
119 c73 -159 144 -390 168 -549 6 -38 13 -86 16 -105 3 -19 8 -111 10 -205 4
-197 -6 -316 -41 -480 -8 -38 -17 -81 -20 -94 -3 -13 -23 -78 -44 -143 -142
-429 -417 -804 -784 -1067 -321 -231 -705 -371 -1088 -397 l-90 -6 25 48 c113
223 196 507 224 759 10 90 10 400 0 487 -8 63 -10 80 -22 138 -2 14 -7 41 -10
60 -24 146 -123 433 -192 558 -14 24 -23 45 -21 48 2 2 40 6 84 9 43 3 90 8
104 10 14 2 49 7 79 10 74 9 268 57 381 95 434 144 860 470 1118 856 54 80 50
81 103 -32z m-3822 68 c55 -112 144 -341 156 -402 2 -8 8 -33 14 -55 5 -22 13
-56 16 -75 3 -19 10 -53 15 -75 17 -79 25 -193 25 -370 0 -180 -7 -259 -31
-390 -23 -121 -86 -334 -129 -430 -52 -118 -80 -175 -85 -175 -12 0 -96 195
-142 330 -40 120 -83 309 -96 427 -14 134 -7 473 12 568 2 11 7 40 11 65 12
79 57 242 95 345 43 116 110 265 119 265 3 0 12 -12 20 -28z m-255 -309 c-110
-360 -129 -753 -53 -1113 24 -110 51 -208 84 -300 30 -85 92 -229 111 -257 23
-36 17 -42 -38 -38 -426 29 -814 172 -1156 427 -171 127 -406 378 -515 551
l-17 27 27 1 c114 2 309 32 454 69 385 97 747 305 1023 587 50 51 92 92 93 93
1 0 -5 -21 -13 -47z m652 -144 c378 -329 846 -525 1320 -554 42 -3 78 -6 80
-7 5 -6 -78 -122 -152 -214 -188 -233 -468 -455 -735 -581 -159 -76 -367 -145
-519 -173 -30 -6 -64 -12 -75 -14 -54 -11 -255 -27 -255 -20 0 2 16 39 36 81
100 217 150 375 189 597 40 232 38 542 -6 766 -6 30 -13 67 -15 82 -6 30 -47
181 -59 213 -4 11 26 -14 66 -56 41 -41 97 -95 125 -120z m-2258 -677 c106
-166 274 -346 452 -487 41 -33 77 -62 80 -65 3 -3 48 -34 102 -68 311 -200
682 -325 1037 -349 48 -3 88 -7 90 -9 7 -6 -63 -106 -148 -211 -92 -115 -256
-275 -366 -358 -333 -250 -743 -406 -1130 -430 -50 -3 -94 -7 -100 -9 -33 -11
-58 18 -110 127 -47 99 -128 313 -140 372 -2 11 -13 63 -24 115 -26 124 -29
148 -38 255 -12 160 -9 281 13 485 13 124 90 404 147 531 41 93 80 169 86 168
3 0 25 -30 49 -67z m3810 -82 c187 -430 227 -925 111 -1383 -42 -165 -175
-491 -210 -512 -6 -5 -37 -7 -68 -6 -52 1 -73 3 -191 17 -184 21 -443 97 -622
182 -292 137 -559 347 -757 593 -80 99 -156 207 -150 213 2 2 40 6 84 9 387
28 749 154 1075 372 144 96 179 124 314 255 100 96 221 239 297 351 l41 61 17
-29 c9 -15 36 -71 59 -123z m-1799 -1170 c195 -233 427 -423 682 -559 243
-129 553 -223 816 -247 37 -3 84 -8 103 -9 19 -2 39 -4 43 -4 24 -2 -199 -285
-310 -392 -424 -412 -956 -623 -1543 -613 -80 1 -161 4 -180 7 -19 3 -71 11
-115 17 -91 14 -93 14 -160 30 -424 101 -816 337 -1109 666 -86 96 -206 259
-206 278 0 7 16 12 38 12 254 6 594 94 857 224 359 177 640 423 883 774 l33
48 61 -89 c33 -48 81 -113 107 -143z"/>
</g>
</svg>
